# xmcd
#
# Track frame offsets: 
#        150
#        23422
#        45957
#        67037
#        85387
#        122987
#        140767
#        164822
#        178807
#        206512
#
# Disc length: 2959 seconds
#
# Revision: 2
# Processed by: cddbd v1.5.1PL0 Copyright (c) Steve Scherf et al.
# Submitted via: ExactAudioCopy v0.90b4
#
DISCID=900b8d0a
DTITLE=Julian Sas - Ragin' River
DYEAR=2002
DGENRE=Blues
TTITLE0=When I boogie
TTITLE1=Mother Earth
TTITLE2=Am I Losing My Way
TTITLE3=Mean Old City
TTITLE4=Ragin' River
TTITLE5=Devil Woman
TTITLE6=Tomorrow Is A Promise (To No One)
TTITLE7=Hard To Tell
TTITLE8=Searchin'
TTITLE9=Signature Blues
EXTD=YEAR: 2002 ID3G:   0
EXTT0=
EXTT1=
EXTT2=
EXTT3=
EXTT4=
EXTT5=
EXTT6=
EXTT7=
EXTT8=
EXTT9=
PLAYORDER=
